<svg width="159" height="48" viewBox="0 0 159 48" fill="none" xmlns="http://www.w3.org/2000/svg">
<rect width="159" height="48" rx="4" fill="#36B37F"/>
<path d="M22.1748 21.5423H24.0885C23.6719 19.1335 21.6133 17.4673 18.945 17.4673C15.7454 17.4673 13.4092 19.8761 13.4092 23.8242C13.4092 27.7362 15.679 30.169 19.0295 30.169C22.0299 30.169 24.173 28.201 24.173 25.0799V23.6733H19.3133V25.2127H22.368C22.3257 27.2049 21.0096 28.4666 19.0295 28.4666C16.8502 28.4666 15.2625 26.8185 15.2625 23.8121C15.2625 20.8178 16.8623 19.1697 18.9571 19.1697C20.5991 19.1697 21.7099 20.0753 22.1748 21.5423ZM30.9026 30.1871C32.9249 30.1871 34.3557 29.1911 34.7662 27.6818L33.0577 27.3739C32.7317 28.2493 31.9469 28.696 30.9207 28.696C29.3752 28.696 28.3369 27.6939 28.2886 25.907H34.8809V25.267C34.8809 21.9165 32.8766 20.6065 30.7758 20.6065C28.192 20.6065 26.4896 22.5746 26.4896 25.424C26.4896 28.3036 28.1678 30.1871 30.9026 30.1871ZM28.2946 24.5547C28.367 23.2386 29.3209 22.0977 30.7878 22.0977C32.1884 22.0977 33.106 23.136 33.1121 24.5547H28.2946ZM41.7221 20.7273H39.8205V18.5057H38.0154V20.7273H36.6571V22.1761H38.0154V27.6516C38.0094 29.3359 39.2953 30.1509 40.72 30.1207C41.2935 30.1147 41.6799 30.006 41.8912 29.9276L41.5652 28.4364C41.4444 28.4606 41.2211 28.5149 40.9313 28.5149C40.3457 28.5149 39.8205 28.3217 39.8205 27.2773V22.1761H41.7221V20.7273ZM49.3827 17.6364V30H51.1576V21.0472H51.2723L54.9186 29.9819H56.3916L60.0379 21.0533H60.1526V30H61.9275V17.6364H59.6636L55.7276 27.2472H55.5827L51.6466 17.6364H49.3827ZM66.1457 33.4531C67.6368 33.4531 68.5846 32.6744 69.1158 31.2376L72.9493 20.7454L70.9994 20.7273L68.651 27.9233H68.5544L66.206 20.7273H64.2742L67.667 30.1207L67.4436 30.7365C66.9848 31.9379 66.3389 32.0465 65.3488 31.7749L64.9141 33.2539C65.1315 33.3565 65.6024 33.4531 66.1457 33.4531ZM80.3141 30H82.1795V25.3214H84.715C84.7573 25.3214 84.7935 25.3214 84.8358 25.3214L87.3471 30H89.4721L86.7314 24.9954C88.2466 24.4339 89.0013 23.1722 89.0013 21.5121C89.0013 19.2362 87.5886 17.6364 84.7211 17.6364H80.3141V30ZM82.1795 23.7156V19.2362H84.5219C86.3631 19.2362 87.1238 20.1115 87.1238 21.5121C87.1238 22.9066 86.3631 23.7156 84.546 23.7156H82.1795ZM95.5165 30.1871C97.5389 30.1871 98.9696 29.1911 99.3801 27.6818L97.6717 27.3739C97.3457 28.2493 96.5609 28.696 95.5346 28.696C93.9892 28.696 92.9508 27.6939 92.9025 25.907H99.4948V25.267C99.4948 21.9165 97.4906 20.6065 95.3897 20.6065C92.8059 20.6065 91.1035 22.5746 91.1035 25.424C91.1035 28.3036 92.7818 30.1871 95.5165 30.1871ZM92.9085 24.5547C92.981 23.2386 93.9348 22.0977 95.4018 22.0977C96.8024 22.0977 97.72 23.136 97.726 24.5547H92.9085ZM108.956 22.9911C108.582 21.5483 107.453 20.6065 105.449 20.6065C103.354 20.6065 101.869 21.7113 101.869 23.3533C101.869 24.6694 102.666 25.5447 104.404 25.9311L105.974 26.2752C106.867 26.4744 107.284 26.8729 107.284 27.4524C107.284 28.1708 106.517 28.7322 105.334 28.7322C104.253 28.7322 103.559 28.2674 103.342 27.3558L101.597 27.6214C101.899 29.2635 103.263 30.1871 105.346 30.1871C107.586 30.1871 109.137 28.9979 109.137 27.3196C109.137 26.0096 108.304 25.2006 106.602 24.8082L105.129 24.4702C104.108 24.2287 103.668 23.8846 103.674 23.2567C103.668 22.5444 104.44 22.0373 105.467 22.0373C106.59 22.0373 107.109 22.6591 107.32 23.2809L108.956 22.9911ZM117.506 26.1545C117.512 27.7301 116.341 28.4787 115.326 28.4787C114.21 28.4787 113.437 27.6697 113.437 26.408V20.7273H111.632V26.6254C111.632 28.9254 112.894 30.1207 114.674 30.1207C116.069 30.1207 117.017 29.3842 117.445 28.3942H117.542V30H119.317V20.7273H117.506V26.1545ZM122.252 30H124.057V24.283C124.057 23.0334 124.933 22.1641 125.959 22.1641C126.961 22.1641 127.655 22.8281 127.655 23.8363V30H129.454V24.0898C129.454 22.973 130.136 22.1641 131.314 22.1641C132.267 22.1641 133.052 22.6953 133.052 23.951V30H134.857V23.782C134.857 21.663 133.674 20.6065 131.996 20.6065C130.662 20.6065 129.66 21.2464 129.213 22.2365H129.116C128.712 21.2223 127.861 20.6065 126.623 20.6065C125.397 20.6065 124.486 21.2163 124.099 22.2365H123.985V20.7273H122.252V30ZM141.783 30.1871C143.805 30.1871 145.236 29.1911 145.647 27.6818L143.938 27.3739C143.612 28.2493 142.827 28.696 141.801 28.696C140.256 28.696 139.217 27.6939 139.169 25.907H145.761V25.267C145.761 21.9165 143.757 20.6065 141.656 20.6065C139.072 20.6065 137.37 22.5746 137.37 25.424C137.37 28.3036 139.048 30.1871 141.783 30.1871ZM139.175 24.5547C139.248 23.2386 140.201 22.0977 141.668 22.0977C143.069 22.0977 143.987 23.136 143.993 24.5547H139.175Z" fill="white"/>
</svg>
